<svg version="1.0" xmlns="http://www.w3.org/2000/svg" viewBox="0 0 596 348"><g fill="#00B299" stroke="#00B299" stroke-width="2.3"><path d="M125 174v174h348V0H125v174zm332.5 1v158.5h-317l-.3-157.5c-.1-86.6 0-158.1.3-158.8l.4-1.2 158.3.2 158.3.3V175z"/><path d="M298.8 26.8 151 27v296h296l.2-148.1c.2-81.4.1-148.2-.2-148.2-.3-.1-67-.1-148.2.1zM228 97.1c3 1.3 7.2 3.4 9.3 4.7l3.7 2.5v4.9l-3.6 4.9-3.6 4.9h-2.2c-1.2 0-4.9-1.4-8.2-3.2l-5.9-3.2-5.8-.1h-5.9l-1.9 2.4-1.9 2.3v5.8l2.8 3 2.7 3 7.5 3.3c15.6 6.9 21.1 10.7 25.8 18.2l2.5 4 .5 7.2.5 7.2-2.7 5.5-2.7 5.5-3.2 2.7c-1.8 1.5-5.6 3.8-8.5 5.2l-5.3 2.4-5.9.5-5.9.6-6.3-1.3-6.3-1.2-5.7-3c-3.1-1.6-6.6-3.9-7.7-4.9l-2.1-2v-4.2l3-4.8c1.7-2.6 3.7-5 4.5-5.2l1.3-.6 7.9 4 7.8 4 4.1.6 4.1.5 3-1.5 3-1.6 1.3-3.1 1.2-3-1.2-3.1-1.3-3-3.1-2.3c-1.7-1.3-4.9-3.1-7.1-4-14.8-6.6-20.6-10.7-25.3-18l-2.7-4.1v-17l2.8-4.7 2.7-4.7 4.3-2.9c7.6-5.1 11.9-6.2 22.7-5.7l7.5.4 5.5 2.2zm63.7-.1 1.3 2.5-.1 36v36l16.7.3 16.8.2 1.3 1.1 1.3 1.1v14.7l-1.9 1.1-2 1h-51l-1.1-1.9-1-2v-91l1.8-1 1.7-1.1 7.5.3 7.4.2 1.3 2.5zm55.4-1.3c1.8 2.1 2.1 2.8 9.8 20.3 5.4 12.4 9.4 21.4 14 31.4l1.8 3.8 12.3-27.6 12.3-27.7 1.8-.9 1.8-1h14.7l1.2 1.2c.7.7 1.2 1.8 1.2 2.4 0 1.3-6.6 16.1-16.1 36.3-2.7 5.7-4.9 10.5-4.9 10.6 0 .2-2.2 5-4.8 10.7-2.7 5.7-6.2 13.2-7.8 16.7-1.6 3.6-4.2 9.2-5.9 12.5l-3 6.1h-6l-2.5-5c-1.4-2.8-3.8-7.9-5.4-11.5-1.7-3.6-4.6-10.1-6.7-14.5-2-4.4-7.4-16.1-11.9-26-4.5-9.9-10-21.8-12.1-26.3-2.2-4.6-3.9-9-3.9-9.7 0-.8.8-1.9 1.8-2.4l1.7-1 7.6-.1h7.6l1.4 1.7zm59.9 76.8c1.6.8 3.6 2.5 4.4 3.7l1.6 2.2v5.8l-2.9 2.9-2.9 2.9h-6.9l-2.6-2-2.6-2.1-.7-3.3-.6-3.4 1.2-2.1c1.1-2.1 6.6-6.1 8.3-6.1.4 0 2.1.7 3.7 1.5zm-200.2 49.3 3.7 1.9.3 1.9.3 2-2 1.8-2 1.9-3.6-1.7-3.6-1.7-2.9.6-3 .7-1.5 2.1-1.5 2.1v3.4c0 1.8.5 4.2 1 5.2l1 1.9 4 1.2 4.1 1.2 1.1-1.1 1.2-1.2h-1.1c-.6 0-1.9-.7-2.8-1.6l-1.6-1.6.7-2.2c.9-2.8 2.2-3.6 6.6-3.6h3.7l1.5 1.6 1.6 1.5v5c0 2.8-.5 5.9-1 6.9l-1 2-5.5 1.5-5.4 1.6-4.3-1.1-4.3-1.2-3.3-3.1c-3.8-3.6-6.2-8.6-6.2-12.7 0-6.4 6-14.5 12.5-16.8l3-1.1 3.3.4c1.9.2 5 1.3 7 2.3zm80.8-.2 3.7 1.8 2.8 4.5 2.9 4.5v8.9l-2.5 4.2c-2.7 4.7-5.1 6.6-10.9 8.5l-3.9 1.2-4.1-1.2c-2.2-.7-5.4-2.1-7-3.3l-2.8-2-1.9-4.1-1.9-4.1v-7l1.9-4.1 1.9-4.1 2.8-2c1.6-1.1 4.3-2.5 5.9-3.1l3-1.1 3.2.4c1.8.2 4.9 1.1 6.9 2.1zM237 233l.5 12.5 5.7.3 5.7.3.6 1.9.6 1.9-1.1 2.1-1.1 2.1-9.2-.3-9.2-.3-.3-15.5c-.1-8.5 0-16 .3-16.8l.5-1.3 3.2.3 3.3.3.5 12.5zm97.1-9.2 2.9 3.2v4.7l-2 2.5-1.9 2.5 1.9 1.8 2 1.8v3.4c0 4.5-1.4 6.9-5 8.8l-2.9 1.5h-14.9l-.6-1.6c-.8-2.1-.8-28.8 0-30.9l.7-1.7 8.4.4 8.5.3 2.9 3.3zm39.5 7.9c3 6.5 6.2 13.2 7 15 .8 1.7 1.4 4.1 1.4 5.3v2.1l-3.6-.3-3.7-.3-1.1-2c-1.7-3-2.7-3.5-7.8-3.5h-4.7l-1.6 3-1.6 3h-6.8l-.6-1.1-.7-1 7.3-16 7.3-15.9h3.7l5.5 11.7zm31.9-9.5c.3 1.3.6 7 .8 12.8l.2 10.5 5.5.5 5.5.5v7h-20l-.3-15.5c-.1-8.5 0-16 .2-16.7l.5-1.3h7.1l.5 2.2z"/><path d="M276.1 229.1c-1.3.5-3 1.7-3.7 2.7l-1.3 1.7-.1 3.6v3.6l2.5 2.3 2.6 2.4h7.2l2.3-2.8 2.4-2.7v-5.8l-2.2-2.5-2.3-2.5-2.5-.5-2.5-.5-2.4 1zm46.6-.4c-.4.3-.7 1.5-.7 2.5v1.8h4.8l.5-1.4.5-1.4-1.1-1.1c-1.2-1.2-3-1.4-4-.4zm-.5 14.5.3 2.3h5v-4l-2.8-.3-2.9-.3.4 2.3zm43.5-6.6c-1 1.1-.8 4.4.2 4.4 1.6 0 2.3-1.9 1.3-3.5l-.8-1.6-.7.7z"/></g><path d="M123.5 175c0 93.8.1 132.1.2 85.2.2-46.8.2-123.6 0-170.5-.1-46.8-.2-8.5-.2 85.3zm351 0c0 93.8.1 132.1.2 85.2.2-46.8.2-123.6 0-170.5-.1-46.8-.2-8.5-.2 85.3z" stroke-width="2.3" fill="#1AADA4" stroke="#1AADA4" fill-opacity=".23" stroke-opacity=".23"/><path d="M124.5 175c0 94.3.1 132.9.2 85.8.2-47.2.2-124.4 0-171.5-.1-47.2-.2-8.6-.2 85.7zm349 0c0 94.3.1 132.9.2 85.8.2-47.2.2-124.4 0-171.5-.1-47.2-.2-8.6-.2 85.7z" stroke-width="2.3" fill="#05B09C" stroke="#05B09C" fill-opacity=".91" stroke-opacity=".91"/><path d="M140.5 17.1c-1.1 1.6-.1 1.9 1.3.3l1.3-1.4h-1c-.5 0-1.3.5-1.6 1.1zm315.7.3c.7.8 1.5 1.2 1.7 1.1.5-.6-1-2.5-2-2.5h-1l1.3 1.4zm-231.4 9.3c40.9.2 107.5.2 148 0 40.5-.1 7.1-.2-74.3-.2-81.4 0-114.6.1-73.7.2zm222.7 148.8c0 81.4.1 114.6.2 73.7.2-40.9.2-107.5 0-148-.1-40.5-.2-7.1-.2 74.3zM209.8 94.7c1.8.2 4.5.2 6 0l2.7-.4h-12l3.3.4zm72.2 0 7.4.4 1.6 1.2 1.5 1.2-1.4-1.8-1.3-1.7-7.7.2-7.6.2 7.5.3zm50-.1c1.4.2 5.3.5 8.7.6l6.1.3-.5-.8-.4-.7-8.2.1c-4.5.1-7.1.3-5.7.5zm76 .3 8.4.6.7 2.5.7 2.5.1-2.1c.1-1.1-.4-2.5-1.1-3.2l-1.2-1.2-8 .2-8.1.2 8.5.5zm-206.2.8c.7.3 1.6.2 1.9-.1.4-.3-.2-.6-1.3-.5l-1.9.1 1.3.5zm20 0c.7.3 1.6.2 1.9-.1.4-.3-.2-.6-1.3-.5l-1.9.1 1.3.5zm50.7.4c-.4.6-.5 1.2-.2 1.5.2.3.7-.2 1-1.1.7-1.7.1-2-.8-.4zm54.9.4c-.3.8-.4 2-.2 2.7l.5 1.3.5-2.8c.6-2.9.1-3.6-.8-1.2zM195.5 98l-.6 1 1.5-.6c1.8-.7 2.1-1.4.7-1.4-.6 0-1.3.4-1.6 1zm36.5 1.4c0 .2.7.7 1.6 1l1.5.6-.6-1c-.6-1-2.5-1.4-2.5-.6zm60.5 34.6c0 19.5.1 27.5.2 17.8.2-9.8.2-25.8 0-35.5-.1-9.8-.2-1.8-.2 17.7zm57.1-32.7c.3 1 .9 1.5 1.2 1.2.3-.3 0-1.1-.7-1.8l-1.2-1.2.7 1.8zm-161.2 1.9-1.9 2.3 2.3-1.9c2.1-1.8 2.7-2.6 1.9-2.6-.2 0-1.2 1-2.3 2.2zm51.2 1.1c.3 1 .9 1.5 1.2 1.2.3-.3 0-1.1-.7-1.8l-1.2-1.2.7 1.8zm91.4 3.6c0 .6.4 1.3 1 1.6l1 .6-.6-1.5c-.7-1.8-1.4-2.1-1.4-.7zm-92.8 3.7c-1.2 1.9-2 3.4-1.8 3.4.7 0 4.9-6.1 4.4-6.5-.2-.2-1.3 1.2-2.6 3.1zm-22.4 1.1c.7.3 1.6.2 1.9-.1.4-.3-.2-.6-1.3-.5l-1.9.1 1.3.5zm5.2 1.7c0 .2.7.7 1.6 1l1.5.6-.6-1c-.6-1-2.5-1.4-2.5-.6zm12.9 3.3-1.4 1.8 1.8-1.4c.9-.7 1.7-1.5 1.7-1.7 0-.8-.8-.3-2.1 1.3zm-6.2.4c.7.7 1.5 1 1.8.7.3-.3-.2-.9-1.2-1.2l-1.8-.7 1.2 1.2zm-26.6 1.5.1 1.9.5-1.3c.3-.7.2-1.6-.1-1.9-.3-.4-.6.2-.5 1.3zm1.9 5.8c0 .2.8 1 1.8 1.7l1.7 1.4-1.4-1.8c-1.3-1.6-2.1-2.1-2.1-1.3zm200.6 3.3-.7 1.8 1.2-1.2c.7-.7 1-1.5.7-1.8-.3-.3-.9.2-1.2 1.2zM183 129.9c0 .6.4 1.3 1 1.6l1 .6-.6-1.5c-.7-1.8-1.4-2.1-1.4-.7zm4.5 7.1c1 1.1 2 2 2.3 2 .3 0-.3-.9-1.3-2s-2-2-2.3-2c-.3 0 .3.9 1.3 2zm33.5-1.6c0 .2.7.7 1.6 1l1.5.6-.6-1c-.6-1-2.5-1.4-2.5-.6zm144.6 1.9c.3 1 .9 1.5 1.2 1.2.3-.3 0-1.1-.7-1.8l-1.2-1.2.7 1.8zM191 140.4c0 .2.8 1 1.8 1.7l1.7 1.4-1.4-1.8c-1.3-1.6-2.1-2.1-2.1-1.3zm44.5 4.6c2.1 2.2 4.1 4 4.4 4 .3 0-1.3-1.8-3.4-4-2.1-2.2-4.1-4-4.4-4-.3 0 1.3 1.8 3.4 4zm-36.8 1.1c.7.7 1.5 1 1.8.7.3-.3-.2-.9-1.2-1.2l-1.8-.7 1.2 1.2zm170.9.2c.3 1 .9 1.5 1.2 1.2.3-.3 0-1.1-.7-1.8l-1.2-1.2.7 1.8zm3 4.4-.7 1.8 1.2-1.2c.7-.7 1-1.5.7-1.8-.3-.3-.9.2-1.2 1.2zm-160.9 1.4c.7.7 1.5 1 1.8.7.3-.3-.2-.9-1.2-1.2l-1.8-.7 1.2 1.2zm29.9 1.2c.3 1 .9 1.5 1.2 1.2.3-.3 0-1.1-.7-1.8l-1.2-1.2.7 1.8zm150 1.4-.7 1.8 1.2-1.2c.7-.7 1-1.5.7-1.8-.3-.3-.9.2-1.2 1.2zm-38.6 1.2c0 .6.4 1.3 1 1.6l1 .6-.6-1.5c-.7-1.8-1.4-2.1-1.4-.7zm-131.4 11.8-.7 1.8 1.2-1.2c.7-.7 1-1.5.7-1.8-.3-.3-.9.2-1.2 1.2zm164 0-.7 1.8 1.2-1.2c.7-.7 1-1.5.7-1.8-.3-.3-.9.2-1.2 1.2zm-26.6 1.2c0 .6.4 1.3 1 1.6l1 .6-.6-1.5c-.7-1.8-1.4-2.1-1.4-.7zM183 173c-.6 1.1-.8 2-.6 2 .3 0 1-.9 1.6-2 .6-1.1.8-2 .6-2-.3 0-1 .9-1.6 2zm219.8-1.3c.7.3 1.6.2 1.9-.1.4-.3-.2-.6-1.3-.5l-1.9.1 1.3.5zm-76 1.5 1.4 1.7-.4 7.5-.3 7.4.8-.5c.4-.2.7-3.7.7-7.7v-7.4l-1.7-1.3-1.8-1.4 1.3 1.7zm69.6 2-1.9 2.3 2.3-1.9c1.2-1.1 2.2-2.1 2.2-2.3 0-.8-.8-.2-2.6 1.9zm-2.2 5.3v3l.5-1.8c.2-.9.2-2.3 0-3-.3-.6-.5.1-.5 1.8zm18 .5v3.5l.5-1.8c.2-.9.2-2.5 0-3.5l-.5-1.7v3.5zm-176.3.7-2.4 2.8 2.8-2.4c2.5-2.3 3.2-3.1 2.4-3.1-.2 0-1.4 1.2-2.8 2.7zm143.7-1-.7 1.8 1.2-1.2c.7-.7 1-1.5.7-1.8-.3-.3-.9.2-1.2 1.2zm16.9 6.3c1 1.1 2 2 2.3 2 .3 0-.3-.9-1.3-2s-2-2-2.3-2c-.3 0 .3.9 1.3 2zm12.9.2-1.9 2.3 2.3-1.9c2.1-1.8 2.7-2.6 1.9-2.6-.2 0-1.2 1-2.3 2.2zm-211.6 1.5c.7.3 1.6.2 1.9-.1.4-.3-.2-.6-1.3-.5l-1.9.1 1.3.5zm171.1.5 1.3 1.8h4.6l1.3-1.8 1.3-1.7-1.4 1.2c-.8.7-2.3 1.3-3.5 1.3-1.2 0-2.7-.6-3.5-1.3l-1.4-1.2 1.3 1.7zm-95 1.1.7.7 26-.2 25.9-.3-26.7-.5-26.7-.5.8.8zm-65.2.4c1.8.2 5 .2 7 0l3.8-.4h-14l3.2.4zm-11.4 29c.9.2 2.3.2 3 0 .6-.3-.1-.5-1.8-.5h-3l1.8.5zm81 0c.9.2 2.3.2 3 0 .6-.3-.1-.5-1.8-.5h-3l1.8.5zm119.1 1.6c-.2.7-.3 8.2-.2 16.7l.3 15.3 1.5.4 1.5.5-1.3-1-1.3-.9.3-16.1c.2-8.9.2-16.2 0-16.2-.1 0-.5.6-.8 1.3zm-208.5 1.4-1.4 1.8 2-1.5c1.1-.8 2.2-1.6 2.4-1.7.2-.2 0-.3-.6-.3s-1.7.8-2.4 1.7zm81.6-.7-.6 1 1.5-.6c1.8-.7 2.1-1.4.7-1.4-.6 0-1.3.4-1.6 1zm15.5-.6c0 .2.7.7 1.6 1l1.5.6-.6-1c-.6-1-2.5-1.4-2.5-.6zm44.1-.2c.2.2 1.8 1.4 3.4 2.8l3 2.5-2.4-2.8c-1.4-1.5-2.9-2.7-3.4-2.7-.6 0-.8.1-.6.2zM313.4 237v15.5l.3-7.8c.2-4.2.2-11.2 0-15.5l-.3-7.7V237zm91.8-3.8-.2 11.7.8.4.7.5-.3-8.1c-.5-14.7-.8-16.4-1-4.5zm-195.7-7.4v2.6l-2.5 1.3-2.5 1.3h1.6c3.1 0 6.5-5.9 4.1-7.4l-.8-.5.1 2.7zm56.9-.6-1.9 2.3 2.3-1.9c1.2-1.1 2.2-2.1 2.2-2.3 0-.8-.8-.2-2.6 1.9zm23.6-1.8c0 .2.8 1 1.8 1.7l1.7 1.4-1.4-1.8c-1.3-1.6-2.1-2.1-2.1-1.3zm-106.5 4.7c-.4.6-.5 1.2-.2 1.5.2.3.7-.2 1-1.1.7-1.7.1-2-.8-.4zm152.7 1.4v3l.5-1.8c.2-.9.2-2.3 0-3-.3-.6-.5.1-.5 1.8zm-14.8 0c-.3.8-.4 2-.2 2.7l.5 1.3.5-2.8c.6-2.9.1-3.6-.8-1.2zm-35.8 1.7c1 1.4 2.1 2.4 2.3 2.2.3-.3-.6-1.5-1.8-2.7l-2.4-2.2 1.9 2.7zm10.7 5.8v5.5l.4-2.8c.2-1.5.2-3.9 0-5.5l-.4-2.7v5.5zm-115 0v4.5l.4-2.3c.2-1.2.2-3.2 0-4.5l-.4-2.2v4.5zm80.8-2.4.1 1.9.5-1.3c.3-.7.2-1.6-.1-1.9-.3-.4-.6.2-.5 1.3zm-71.9 2.4v3.5l.5-1.8c.2-.9.2-2.5 0-3.5l-.5-1.7v3.5zm12.6-1.3c1.2.2 3.2.2 4.5 0l2.2-.4h-9l2.3.4zm67.4 1.3v2.5l.5-1.3c.2-.6.2-1.8 0-2.5l-.5-1.2v2.5zm18 0v2.5l.5-1.3c.2-.6.2-1.8 0-2.5l-.5-1.2v2.5zm-76.9 6.5v6l.4-3.3c.2-1.8.2-4.5 0-6l-.4-2.7v6zm152.8-3.9.1 1.9.5-1.3c.3-.7.2-1.6-.1-1.9-.3-.4-.6.2-.5 1.3zm3.4.4-.6 1h1c.6 0 1.1-.5 1.1-1 0-.6-.2-1-.4-1-.3 0-.8.4-1.1 1zm-81.9 2.8-1.9 2.7 2.4-2.2c1.2-1.2 2.1-2.4 1.8-2.7-.2-.2-1.3.8-2.3 2.2zm36.1-2.1c-1 .9-.9 4.1.2 4.7l.8.5-.4-2.3-.5-2.4 2.3-.5 2.4-.4-2.1-.2c-1.1 0-2.4.2-2.7.6zm-49.2 2.3c1 1.1 2 2 2.3 2 .3 0-.3-.9-1.3-2s-2-2-2.3-2c-.3 0 .3.9 1.3 2zm55 .5v2.3l.8-.5c.4-.2.7-1 .7-1.8s-.3-1.6-.7-1.8l-.8-.5v2.3zM183 244.9c0 .6.4 1.3 1 1.6l1 .6-.6-1.5c-.7-1.8-1.4-2.1-1.4-.7zm11.8.3c.5.5 1.6.8 2.3.6l1.3-.4-2.3-.7-2.4-.6 1.1 1.1zm184.8 1.1c.3 1 .9 1.5 1.2 1.2.3-.3 0-1.1-.7-1.8l-1.2-1.2.7 1.8zm-131.5.2c0 .5.4 1.9.9 3l.9 2V250c0-.8-.4-2.2-.9-3-.5-.8-.9-1.1-.9-.5zm18.4 2.5c1 1.1 2 2 2.3 2 .3 0-.3-.9-1.3-2s-2-2-2.3-2c-.3 0 .3.9 1.3 2zm24.4.7-1.4 1.8 1.8-1.4c.9-.7 1.7-1.5 1.7-1.7 0-.8-.8-.3-2.1 1.3zm43 1-1.4 1.8 1.8-1.4c.9-.7 1.7-1.5 1.7-1.7 0-.8-.8-.3-2.1 1.3zm-144.7.9c1 1 2 1.6 2.2 1.3.3-.3-.5-1.1-1.7-1.8l-2.2-1.3 1.7 1.8zm160.8-.2c0 .8.4 1.7.9 2l.9.6-.5-2c-.6-2.3-1.3-2.6-1.3-.6zm23-.5c0 1 2.9 3.6 3.4 3 .1-.2-.6-1.2-1.6-2.2-1-.9-1.8-1.3-1.8-.8zm-102.3 1.2c.7.7 1.5 1 1.8.7.3-.3-.2-.9-1.2-1.2l-1.8-.7 1.2 1.2zm16.3-.1-1.5 1h1.2c.6 0 1.5-.5 1.8-1 .8-1.2.4-1.2-1.5 0zm70 1-1.5 1h1.2c.6 0 1.5-.5 1.8-1 .8-1.2.4-1.2-1.5 0zm59 0-1.5 1h1.2c.6 0 1.5-.5 1.8-1 .8-1.2.4-1.2-1.5 0zm-218.2 1.7c.6.2 1.8.2 2.5 0l1.2-.5h-5l1.3.5zm80.5 0c.9.2 2.3.2 3 0 .6-.3-.1-.5-1.8-.5h-3l1.8.5zM140 331.9c0 1 1.9 2.5 2.5 2 .1-.2-.3-1-1.1-1.7l-1.4-1.3v1zm316.2.7-1.3 1.4h1c1 0 2.5-1.9 2-2.5-.2-.1-1 .3-1.7 1.1z" stroke-width="2.3" fill="#00B2CC" stroke="#00B2CC"/><path d="M220.7 16.7c43.1.2 113.5.2 156.5 0 43.1-.1 7.9-.2-78.2-.2-86.1 0-121.3.1-78.3.2zM140.5 175c0 86.1.1 121.3.2 78.2.2-43 .2-113.4 0-156.5-.1-43-.2-7.8-.2 78.3zm317 0c0 86.1.1 121.3.2 78.2.2-43 .2-113.4 0-156.5-.1-43-.2-7.8-.2 78.3zm-307-.5c0 81.4.1 114.6.2 73.7.2-40.9.2-107.5 0-148-.1-40.5-.2-7.1-.2 74.3zm122-32c0 24.7.1 34.7.2 22.2.2-12.6.2-32.8 0-45-.1-12.2-.2-2-.2 22.8zm-41.7-23.8c.7.3 1.6.2 1.9-.1.4-.3-.2-.6-1.3-.5l-1.9.1 1.3.5zm-10.9 52-1.4 1.8 1.8-1.4c.9-.7 1.7-1.5 1.7-1.7 0-.8-.8-.3-2.1 1.3zm79.9 2c3.9.2 10.5.2 14.5 0l7.2-.3h-29l7.3.3zm-88.5 1c.9.2 2.3.2 3 0 .6-.3-.1-.5-1.8-.5h-3l1.8.5zm20.5 47c.6.2 1.8.2 2.5 0l1.2-.5h-5l1.3.5zm87 0c1.7.2 4.7.2 6.5 0l3.2-.4h-13l3.3.4zm79.9 0-.5.8h6.6l-.5-.8c-.2-.4-1.5-.7-2.8-.7-1.3 0-2.6.3-2.8.7zm-212.8 5-1.4 1.8 1.8-1.4c1.6-1.3 2.1-2.1 1.3-2.1-.2 0-1 .8-1.7 1.7zm6 5-1.4 1.8 1.8-1.4c1.6-1.3 2.1-2.1 1.3-2.1-.2 0-1 .8-1.7 1.7zm70.2 6.9.1 1.9.5-1.3c.3-.7.2-1.6-.1-1.9-.3-.4-.6.2-.5 1.3zm61.7 9.1c.7.3 1.6.2 1.9-.1.4-.3-.2-.6-1.3-.5l-1.9.1 1.3.5zm92.1.5 1.3 1.8-.5 2-.5 2 .9-.6c1.5-.9 1-4.1-.8-5.5l-1.8-1.4 1.4 1.7zm-230.9.2c0 .2.8 1 1.8 1.7l1.7 1.4-1.4-1.8c-1.3-1.6-2.1-2.1-2.1-1.3zm166.8 5.8c.6.6 1.8.8 2.8.6l1.9-.4-2.8-.6-2.9-.6 1 1zm-117 .5c2.3.2 6.1.2 8.5 0l4.2-.4h-17l4.3.4zm84 0c1.7.2 4.7.2 6.5 0l3.2-.4h-13l3.3.4zm59 0c.7.3 1.6.2 1.9-.1.4-.3-.2-.6-1.3-.5l-1.9.1 1.3.5zm26 0c2.3.2 5.9.2 8 0l3.7-.4h-16l4.3.4zm-178 70c40.9.2 107.5.2 148 0 40.5-.1 7.1-.2-74.3-.2-81.4 0-114.6.1-73.7.2zm-5.1 10c43.1.2 113.5.2 156.5 0 43.1-.1 7.9-.2-78.2-.2-86.1 0-121.3.1-78.3.2z" stroke-width="2.3" fill="#4CB2CC" stroke="#4CB2CC"/><g fill="#4CFFCC" stroke="#4CFFCC" stroke-width="2.3"><path d="M455.8 174.6 456 332l-157.4-.2-157.5-.3.8.8.7.7 157-.2 156.9-.3.3-156.9.2-157-.7-.7-.8-.8.3 157.5zM150.7 25.7l-.5.8 95.1-.3c52.4-.1 119.3-.3 148.7-.5 29.4-.1-13.2-.3-94.7-.5L151.1 25l-.4.7z"/><path d="m448 175.2-.5 148.7.8-.8.7-.7-.2-148-.3-147.9-.5 148.7zM208.7 95.7c1.8.2 5 .2 7 0l3.8-.4h-14l3.2.4zm68.3-.1c1.4.2 5 .5 8.2.6l5.6.3-.5-.8-.4-.7-7.7.1c-4.2.1-6.6.3-5.2.5zm60.5.1 7.9.4 1.6 1.2 1.5 1.2-1.4-1.8-1.3-1.7-8.2.2-8.1.2 8 .3zm61.2 0-.5.8 8.8-.3 8.8-.3.5 1.8.4 1.8-.1-2-.1-2-8.7-.3-8.6-.3-.5.8zm-125.6 1.9.1 1.9.5-1.3c.3-.7.2-1.6-.1-1.9-.3-.4-.6.2-.5 1.3zm55.1.4v2.5l.5-1.3c.2-.6.2-1.8 0-2.5l-.5-1.2V98zm-134.3 2.1-2.4 2 2.8-1.7c1.5-.9 2.7-1.8 2.7-2 0-.8-.8-.4-3.1 1.7zM229 99c.8.5 2 1 2.5 1h1l-1.5-1c-.8-.5-1.9-1-2.5-1h-1l1.5 1zm62.2 35.7-.2 37.2.8.4.7.5-.3-24.6c-.1-13.6-.3-30.6-.5-37.7-.1-7.2-.4 3.7-.5 24.2zm105.3-35.6c-.4.6-.5 1.2-.2 1.5.2.3.7-.2 1-1.1.7-1.7.1-2-.8-.4zm-48.5.4c0 .5.5 1.7 1 2.5l1 1.5v-1c0-.6-.5-1.7-1-2.5l-1-1.5v1zm66.6 3c-.9 2.6-.7 3.2.5 1.2.6-1 .9-2.1.6-2.3-.2-.3-.7.2-1.1 1.1zm-20 1.2-.7 1.8 1.2-1.2c.7-.7 1-1.5.7-1.8-.3-.3-.9.2-1.2 1.2zm-64.6.2c0 .6.4 1.3 1 1.6l1 .6-.6-1.5c-.7-1.8-1.4-2.1-1.4-.7zm62.6 3.6c-.9 2.6-.7 3.2.5 1.2.6-1 .9-2.1.6-2.3-.2-.3-.7.2-1.1 1.1zm19.9-.4c-.4.6-.5 1.2-.2 1.5.2.3.7-.2 1-1.1.7-1.7.1-2-.8-.4zm-79.9 2.2c.3 1 .9 1.5 1.2 1.2.3-.3 0-1.1-.7-1.8l-1.2-1.2.7 1.8zm19.4-.8c0 .5.5 1.7 1 2.5l1 1.5v-1c0-.6-.5-1.7-1-2.5l-1-1.5v1zm-141.2 2.2c.7.3 1.6.2 1.9-.1.4-.3-.2-.6-1.3-.5l-1.9.1 1.3.5zm4 1c.7.3 1.6.2 1.9-.1.4-.3-.2-.6-1.3-.5l-1.9.1 1.3.5zm-31.7 3.9.1 1.9.5-1.3c.3-.7.2-1.6-.1-1.9-.3-.4-.6.2-.5 1.3zm39.9-1.2c0 .2.7.7 1.6 1l1.5.6-.6-1c-.6-1-2.5-1.4-2.5-.6zm185.6 1.1c-.9 2.6-.7 3.2.5 1.2.6-1 .9-2.1.6-2.3-.2-.3-.7.2-1.1 1.1zm-174.7 1.2-1.4 1.8 1.8-1.4c.9-.7 1.7-1.5 1.7-1.7 0-.8-.8-.3-2.1 1.3zm154.7-.2c-.9 2.6-.7 3.2.5 1.2.6-1 .9-2.1.6-2.3-.2-.3-.7.2-1.1 1.1zm-52.6 0c0 .5.5 1.7 1 2.5l1 1.5v-1c0-.6-.5-1.7-1-2.5l-1-1.5v1zm20 1c0 .5.5 1.7 1 2.5l1 1.5v-1c0-.6-.5-1.7-1-2.5l-1-1.5v1zm-156 2.1c0 1 .5 2.6 1 3.4l1.1 1.5-.7-3c-.8-3.7-1.4-4.5-1.4-1.9zm-17.8 1.4v2.5l.5-1.3c.2-.6.2-1.8 0-2.5l-.5-1.2v2.5zm224.3-.9c-.4.6-.5 1.2-.2 1.5.2.3.7-.2 1-1.1.7-1.7.1-2-.8-.4zm-67.9 2.2c.3 1 .9 1.5 1.2 1.2.3-.3 0-1.1-.7-1.8l-1.2-1.2.7 1.8zM183.2 126v2.5l.5-1.3c.2-.6.2-1.8 0-2.5l-.5-1.2v2.5zm201.4-.5c-.9 2.6-.7 3.2.5 1.2.6-1 .9-2.1.6-2.3-.2-.3-.7.2-1.1 1.1zm-182.6-.1c0 .2.8 1 1.8 1.7l1.7 1.4-1.4-1.8c-1.3-1.6-2.1-2.1-2.1-1.3zm158 1.1c0 .5.5 1.7 1 2.5l1 1.5v-1c0-.6-.5-1.7-1-2.5l-1-1.5v1zm42.5 2.6c-.4.6-.5 1.2-.2 1.5.2.3.7-.2 1-1.1.7-1.7.1-2-.8-.4zm-218.5.5c0 .6.7 1.9 1.6 3l1.5 1.9-1.2-2.5c-1.4-3.1-1.9-3.6-1.9-2.4zm23-.2c0 .3.9 1 2 1.6 1.1.6 2 .8 2 .6 0-.3-.9-1-2-1.6-1.1-.6-2-.8-2-.6zm135 .1c0 .5.5 1.7 1 2.5l1 1.5v-1c0-.6-.5-1.7-1-2.5l-1-1.5v1zM213 133c.8.5 2 1 2.5 1h1l-1.5-1c-.8-.5-1.9-1-2.5-1h-1l1.5 1zm187.5.1c-.4.6-.5 1.2-.2 1.5.2.3.7-.2 1-1.1.7-1.7.1-2-.8-.4zm-19.9 1.4c-.9 2.6-.7 3.2.5 1.2.6-1 .9-2.1.6-2.3-.2-.3-.7.2-1.1 1.1zm-36 .8c.3 1 .9 1.5 1.2 1.2.3-.3 0-1.1-.7-1.8l-1.2-1.2.7 1.8zM190 138.5c1.9 1.9 3.6 3.5 3.9 3.5.3 0-1-1.6-2.9-3.5s-3.6-3.5-3.9-3.5c-.3 0 1 1.6 2.9 3.5zm174-2.6c0 .6.4 1.3 1 1.6l1 .6-.6-1.5c-.7-1.8-1.4-2.1-1.4-.7zm-141.3 1.2c.7.7 1.5 1 1.8.7.3-.3-.2-.9-1.2-1.2l-1.8-.7 1.2 1.2zm173.9 4.4c-.9 2.6-.7 3.2.5 1.2.6-1 .9-2.1.6-2.3-.2-.3-.7.2-1.1 1.1zm-161.6 4c1.9 1.9 3.6 3.5 3.9 3.5.3 0-1-1.6-2.9-3.5s-3.6-3.5-3.9-3.5c-.3 0 1 1.6 2.9 3.5zm113-3c0 .5.5 1.7 1 2.5l1 1.5v-1c0-.6-.5-1.7-1-2.5l-1-1.5v1zm28.6 1c-.9 2.6-.7 3.2.5 1.2.6-1 .9-2.1.6-2.3-.2-.3-.7.2-1.1 1.1zm-8.6 1.4c0 .6.4 1.3 1 1.6l1 .6-.6-1.5c-.7-1.8-1.4-2.1-1.4-.7zm26.5 1.2c-.4.6-.5 1.2-.2 1.5.2.3.7-.2 1-1.1.7-1.7.1-2-.8-.4zm-193.5.3c0 .2.7.7 1.6 1l1.5.6-.6-1c-.6-1-2.5-1.4-2.5-.6zm9 4c0 .2.7.7 1.6 1l1.5.6-.6-1c-.6-1-2.5-1.4-2.5-.6zm161.6 1.8c.3.4.9.8 1.5.8.5 0 .9-.4.9-.8 0-.5-.7-.9-1.5-.9h-1.4l.5.9zm-157.6.2c0 .2.7.7 1.6 1l1.5.6-.6-1c-.6-1-2.5-1.4-2.5-.6zm26.6.9c.3 1 .9 1.5 1.2 1.2.3-.3 0-1.1-.7-1.8l-1.2-1.2.7 1.8zm149.9 1.8c-.4.6-.5 1.2-.2 1.5.2.3.7-.2 1-1.1.7-1.7.1-2-.8-.4zm-171.5.3c0 .2.8 1 1.8 1.7l1.7 1.4-1.4-1.8c-1.3-1.6-2.1-2.1-2.1-1.3zm23.1 2.2.1 1.9.5-1.3c.3-.7.2-1.6-.1-1.9-.3-.4-.6.2-.5 1.3zm112.5-.3c.3 1 .9 1.5 1.2 1.2.3-.3 0-1.1-.7-1.8l-1.2-1.2.7 1.8zm33.9 1.8c-.4.6-.5 1.2-.2 1.5.2.3.7-.2 1-1.1.7-1.7.1-2-.8-.4zm-145.3 4.4v3l.5-1.8c.2-.9.2-2.3 0-3-.3-.6-.5.1-.5 1.8zm143.4.2-.7 1.8 1.2-1.2c.7-.7 1-1.5.7-1.8-.3-.3-.9.2-1.2 1.2zm-28.6 1.2c0 .6.4 1.3 1 1.6l1 .6-.6-1.5c-.7-1.8-1.4-2.1-1.4-.7zm-135.3 2-.6 2.4 1.1-1.1c.5-.5.8-1.6.6-2.3l-.4-1.3-.7 2.3zM187 168c-.6 1.1-.8 2-.6 2 .3 0 1-.9 1.6-2 .6-1.1.8-2 .6-2-.3 0-1 .9-1.6 2zm6-1.6c0 .3 1.4 1.2 3 2.1 1.7.9 3 1.3 3 1.1 0-.3-1.3-1.2-3-2.1-1.6-.9-3-1.3-3-1.1zm49.1 2.2.1 1.9.5-1.3c.3-.7.2-1.6-.1-1.9-.3-.4-.6.2-.5 1.3zm142.4-.5c-.4.6-.5 1.2-.2 1.5.2.3.7-.2 1-1.1.7-1.7.1-2-.8-.4zm-23.9 2.2c.3 1 .9 1.5 1.2 1.2.3-.3 0-1.1-.7-1.8l-1.2-1.2.7 1.8zm-38.8 2.4c.7.3 1.6.2 1.9-.1.4-.3-.2-.6-1.3-.5l-1.9.1 1.3.5zm81 0c.7.3 1.6.2 1.9-.1.4-.3-.2-.6-1.3-.5l-1.9.1 1.3.5zm-195 1c.7.3 1.6.2 1.9-.1.4-.3-.2-.6-1.3-.5l-1.9.1 1.3.5zm117.2-.3c0 .2.7.7 1.6 1l1.5.6-.6-1c-.6-1-2.5-1.4-2.5-.6zm81.1-.1c.2.1 1.5 1.1 2.9 2.2l2.5 2-1.9-2.3c-1.1-1.2-2.4-2.2-2.9-2.2-.6 0-.8.1-.6.3zm-223.5 2.4-.7 1.6.8.8.8.8.1-2.5c.2-2.8-.1-3.1-1-.7zm214.3 0-1.4 1.8 1.8-1.4c.9-.7 1.7-1.5 1.7-1.7 0-.8-.8-.3-2.1 1.3zm-16.3 1-.7 1.8 1.2-1.2c.7-.7 1-1.5.7-1.8-.3-.3-.9.2-1.2 1.2zm-16.6 1.2c0 .6.4 1.3 1 1.6l1 .6-.6-1.5c-.7-1.8-1.4-2.1-1.4-.7zm31.2 3.1v3.5l.5-1.8c.2-.9.2-2.5 0-3.5l-.5-1.7v3.5zm-160.3.7-2.4 2.8 2.8-2.4c2.5-2.3 3.2-3.1 2.4-3.1-.2 0-1.4 1.2-2.8 2.7zm-49.9-1.3c0 .2.8 1 1.8 1.7l1.7 1.4-1.4-1.8c-1.3-1.6-2.1-2.1-2.1-1.3zm193.5.7c-.4.6-.5 1.2-.2 1.5.2.3.7-.2 1-1.1.7-1.7.1-2-.8-.4zm-11.9 2.2c.3 1 .9 1.5 1.2 1.2.3-.3 0-1.1-.7-1.8l-1.2-1.2.7 1.8zm-174.9 1.8c.7.7 1.5 1 1.8.7.3-.3-.2-.9-1.2-1.2l-1.8-.7 1.2 1.2zm204.3.3c0 .2.8 1 1.8 1.7l1.7 1.4-1.4-1.8c-1.3-1.6-2.1-2.1-2.1-1.3zm12.9 1.3-1.4 1.8 1.8-1.4c.9-.7 1.7-1.5 1.7-1.7 0-.8-.8-.3-2.1 1.3zM196 187c.8.5 2 1 2.5 1h1l-1.5-1c-.8-.5-1.9-1-2.5-1h-1l1.5 1zm30 0-1.5 1h1.2c.6 0 1.5-.5 1.8-1 .8-1.2.4-1.2-1.5 0zm-24.2 1.7c.7.3 1.6.2 1.9-.1.4-.3-.2-.6-1.3-.5l-1.9.1 1.3.5zm124.2.3-1.5 1h1.2c.6 0 1.5-.5 1.8-1 .8-1.2.4-1.2-1.5 0zm43.7.1c.7.7 1.5 1 1.8.7.3-.3-.2-.9-1.2-1.2l-1.8-.7 1.2 1.2zm4.3-.1-1.5 1h1.2c.6 0 1.5-.5 1.8-1 .8-1.2.4-1.2-1.5 0zm-167.7.7c.9.2 2.3.2 3 0 .6-.3-.1-.5-1.8-.5h-3l1.8.5zm10.5 0c.6.2 1.8.2 2.5 0l1.2-.5h-5l1.3.5zm186 0c.7.3 1.6.2 1.9-.1.4-.3-.2-.6-1.3-.5l-1.9.1 1.3.5zm-208.7 31.2-1.5 1 4.5-.6c2.4-.3 4.6-.7 4.8-.9 1-.9-6.5-.3-7.8.5zm83.7-.2c1.2.2 3 .2 4 0l1.7-.5-4 .1h-4l2.3.4zm50 1c.7.3 1.6.2 1.9-.1.4-.3-.2-.6-1.3-.5l-1.9.1 1.3.5zM368 223c.6 1.1 1.3 2 1.6 2 .2 0 0-.9-.6-2s-1.3-2-1.6-2c-.2 0 0 .9.6 2zm36 10.8.5 12.7 5 .3 4.9.3 1.6 1.2 1.5 1.2-1.4-1.8-1.3-1.7H405v-23.9l-.7-.4-.8-.5.5 12.6zm-71.1-9.4c2.5 3.4 2.7 6.3.5 9.6l-1.6 2.5 2.1-2.4 2.1-2.3v-4.7l-2.6-2.8-2.6-2.8 2.1 2.9zM229.4 237v14.5l.3-7.3c.2-3.9.2-10.5 0-14.5l-.3-7.2V237zm7-4v10.5l.3-5.3c.2-2.8.2-7.6 0-10.5l-.3-5.2V233zm30.5-7.3-1.4 1.8 1.8-1.4c.9-.7 1.7-1.5 1.7-1.7 0-.8-.8-.3-2.1 1.3zm95.7 0-.7 1.8 1.2-1.2c.7-.7 1-1.5.7-1.8-.3-.3-.9.2-1.2 1.2zm-84.8 2c1.2.2 3 .2 4 0l1.7-.5-4 .1h-4l2.3.4zm-85.9 2-1.4 1.8 2-1.5c1.1-.8 2.2-1.6 2.4-1.7.2-.2 0-.3-.6-.3s-1.7.8-2.4 1.7zm12.1-.7c.8.5 2.2.9 3 .9h1.5l-2-.9c-2.7-1.2-4.3-1.2-2.5 0zm60.5.1c-.4.6-.5 1.2-.2 1.5.2.3.7-.2 1-1.1.7-1.7.1-2-.8-.4zm21 .9c1 1.1 2 2 2.3 2 .3 0-.3-.9-1.3-2s-2-2-2.3-2c-.3 0 .3.9 1.3 2zm75.1-.5c-.9 2.6-.7 3.2.5 1.2.6-1 .9-2.1.6-2.3-.2-.3-.7.2-1.1 1.1zm-40.6 1.4c0 1.1.4 2.2.9 2.5l.8.5-.5-2.4c-.5-3-1.2-3.3-1.2-.6zm8.1-.3.1 1.9.5-1.3c.3-.7.2-1.6-.1-1.9-.3-.4-.6.2-.5 1.3zm-34.1-.1c0 .5.5 1.7 1 2.5l1 1.5v-1c0-.6-.5-1.7-1-2.5l-1-1.5v1zm-23.5 1.6c-.4.6-.5 1.2-.2 1.5.2.3.7-.2 1-1.1.7-1.7.1-2-.8-.4zm101.5-.2c0 .6.4 1.3 1 1.6l1 .6-.6-1.5c-.7-1.8-1.4-2.1-1.4-.7zM263.2 234v2.5l.5-1.3c.2-.6.2-1.8 0-2.5l-.5-1.2v2.5zm-81.1.6.1 1.9.5-1.3c.3-.7.2-1.6-.1-1.9-.3-.4-.6.2-.5 1.3zm182.8 1.1-1.4 1.8 1.6-1.2 1.6-1.3.6.7.7.6v-1.1c0-1.7-1.6-1.5-3.1.5zM189.2 237v2.5l.5-1.3c.2-.6.2-1.8 0-2.5l-.5-1.2v2.5zm100 0v2.5l.5-1.3c.2-.6.2-1.8 0-2.5l-.5-1.2v2.5zm84.8-1.5c0 .5.5 1.7 1 2.5l1 1.5v-1c0-.6-.5-1.7-1-2.5l-1-1.5v1zm-173.8 1.7c-.7.7-1.2 1.9-1.1 2.7v1.6l1-2.3.9-2.3 4.2.3 4.3.3.3 6 .3 5.9-1.7 1.3c-1 .7-1.3 1.3-.8 1.3.6 0 1.5-.5 2.2-1.2l1.2-1.2v-11.2l-1.2-1.2-1.2-1.2h-7.2l-1.2 1.2zm156.4 1.5-.7 1.8 1.2-1.2c.7-.7 1-1.5.7-1.8-.3-.3-.9.2-1.2 1.2zm11.9 0 .6 2.3h-4.9l-.5-1.3-.5-1.2-.1 1.7-.1 1.8h7v-1.3c0-.6-.5-1.9-1.1-2.7l-1-1.5.6 2.2zm-186.4.9.1 1.9.5-1.3c.3-.7.2-1.6-.1-1.9-.3-.4-.6.2-.5 1.3zm81.1.4v2.5l.5-1.3c.2-.6.2-1.8 0-2.5l-.5-1.2v2.5zm6.8.9c0 .6.4 1.3 1 1.6l1 .6-.6-1.5c-.7-1.8-1.4-2.1-1.4-.7zm50.4.6c-.3.8-.4 2-.2 2.7l.5 1.3.5-2.8c.6-2.9.1-3.6-.8-1.2zm7.7.3 1.4 2.3-2 1.6-2 1.5 1.4-.4c.8-.2 1.9-1.2 2.5-2.1l1.1-1.7-1.9-1.7-1.8-1.8 1.3 2.3zm26.5.7c-.9 2.6-.7 3.2.5 1.2.6-1 .9-2.1.6-2.3-.2-.3-.7.2-1.1 1.1z"/><path d="M200 242.4c0 .2.9.6 2 .9l2 .5-.6-.9c-.5-.9-3.4-1.3-3.4-.5zm85.4 1.8-1.9 2.3 2.3-1.9c1.2-1.1 2.2-2.1 2.2-2.3 0-.8-.8-.2-2.6 1.9zm50.8-.2v2.5l.5-1.3c.2-.6.2-1.8 0-2.5l-.5-1.2v2.5zm-72.2-.1c0 .6.4 1.3 1 1.6l1 .6-.6-1.5c-.7-1.8-1.4-2.1-1.4-.7zm114 1c0 .6.4 1.3 1 1.6l1 .6-.6-1.5c-.7-1.8-1.4-2.1-1.4-.7zm-141.2 1.3c.4.4 3 .8 5.7 1l5 .3v2.7l-.1 2.7.8-.5c1.2-.8.9-4-.4-5.2-.7-.5-3.6-1.2-6.5-1.3l-5.2-.4.7.7zm-39.5.5c.9.2 2.5.2 3.5 0l1.7-.5h-7l1.8.5zm80 0c.9.2 2.5.2 3.5 0l1.7-.5h-7l1.8.5zm-11.3.7c0 .2.8 1 1.8 1.7l1.7 1.4-1.4-1.8c-1.3-1.6-2.1-2.1-2.1-1.3zm93.2.8c-.7.7-1.2 1.6-1.2 2.2 0 .5.6.2 1.3-.8l1.3-1.8 6.6.4 6.6.3-.5-.8c-.2-.4-3.2-.7-6.7-.7h-6.2l-1.2 1.2zm-26.3 2.5-1.4 1.8 1.8-1.4c1.6-1.3 2.1-2.1 1.3-2.1-.2 0-1 .8-1.7 1.7zm47.6-.8.8 1.3-1.4.9-1.4.9h1.2c.6 0 1.5-.5 1.9-1.1l.6-1.1-1.2-1.1-1.3-1.2.8 1.4zm-190.8 1.2c.7.7 1.5 1 1.8.7.3-.3-.2-.9-1.2-1.2l-1.8-.7 1.2 1.2zm161.3-.2c0 .6.4 1.3 1 1.6l1 .6-.6-1.5c-.7-1.8-1.4-2.1-1.4-.7zm-36.3 1.2c.7.7 1.5 1 1.8.7.3-.3-.2-.9-1.2-1.2l-1.8-.7 1.2 1.2zm60 0c.7.7 1.5 1 1.8.7.3-.3-.2-.9-1.2-1.2l-1.8-.7 1.2 1.2zm24 0c.7.7 1.5 1 1.8.7.3-.3-.2-.9-1.2-1.2l-1.8-.7 1.2 1.2zm-194.9.6c.7.3 1.6.2 1.9-.1.4-.3-.2-.6-1.3-.5l-1.9.1 1.3.5zm75.7.3-4 .7 3.5.1c1.9 0 4.4-.3 5.5-.8l2-.9-1.5.1c-.8.1-3.3.4-5.5.8zm48.3-.3c.7.3 1.6.2 1.9-.1.4-.3-.2-.6-1.3-.5l-1.9.1 1.3.5zm-130.5 1c.9.2 2.5.2 3.5 0l1.7-.5h-7l1.8.5zM150 323c0 .5.5 1 1.1 1h1l-.6-1c-.3-.6-.8-1-1.1-1-.2 0-.4.4-.4 1z"/></g><path d="M220.7 17.7c43.1.2 113.5.2 156.5 0 43.1-.1 7.9-.2-78.2-.2-86.1 0-121.3.1-78.3.2zM141.5 175c0 86.1.1 121.3.2 78.2.2-43 .2-113.4 0-156.5-.1-43-.2-7.8-.2 78.3zm132-32c0 24.5.1 34.5.2 22.3.2-12.3.2-32.3 0-44.5-.1-12.3-.2-2.3-.2 22.2zm-84.1-38.8-1.9 2.3 2.3-1.9c2.1-1.8 2.7-2.6 1.9-2.6-.2 0-1.2 1-2.3 2.2zm111.4 69.5c4.5.2 11.9.2 16.5 0 4.5-.1.8-.3-8.3-.3-9.1 0-12.8.2-8.2.3zm110.3 6.9.1 1.9.5-1.3c.3-.7.2-1.6-.1-1.9-.3-.4-.6.2-.5 1.3zm-199.8 9.1c.9.2 2.5.2 3.5 0l1.7-.5h-7l1.8.5zm77 0c7.1.2 18.3.2 25 0 6.7-.1 1-.3-12.8-.3-13.7 0-19.2.2-12.2.3zm-56.5 32c.7.3 1.6.2 1.9-.1.4-.3-.2-.6-1.3-.5l-1.9.1 1.3.5zm87 0c1.8.2 4.5.2 6 0l2.7-.4h-12l3.3.4zm82 0c.7.3 1.6.2 1.9-.1.4-.3-.2-.6-1.3-.5l-1.9.1 1.3.5zM314.4 237v14.5l.3-7.3c.2-3.9.2-10.5 0-14.5l-.3-7.2V237zm84 0v14.5l.3-7.3c.2-3.9.2-10.5 0-14.5l-.3-7.2V237zm-75.6-10.3c.7.3 1.6.2 1.9-.1.4-.3-.2-.6-1.3-.5l-1.9.1 1.3.5zM269.2 237v2.5l.5-1.3c.2-.6.2-1.8 0-2.5l-.5-1.2v2.5zm53.6 2.7c.6.2 1.8.2 2.5 0l1.2-.5h-5l1.3.5zM191.5 244c1 1.1 2 2 2.3 2 .3 0-.3-.9-1.3-2s-2-2-2.3-2c-.3 0 .3.9 1.3 2zm48.8 3.7c1.5.2 3.7.2 5 0l2.2-.4h-10l2.8.4zm82.5 0c.6.2 1.8.2 2.5 0l1.2-.5h-5l1.3.5zm86 0c1.2.2 3.2.2 4.5 0l2.2-.4h-9l2.3.4zm-173 5c2.3.2 5.9.2 8 0l3.7-.4h-16l4.3.4zm83.5 0c1.5.2 3.9.2 5.5 0l2.7-.4h-11l2.8.4zm85 0c2 .2 5.4.2 7.5 0l3.7-.4h-15l3.8.4z" stroke-width="2.3" fill="#B2FFCC" stroke="#B2FFCC"/><g fill="#B2FFFF" stroke="#B2FFFF" stroke-width="2.3"><path d="m150.2 25.2-1.2 1.2.2 148.5.3 148.6.5-149 .5-149h298v298l-149 .5-149 .5 148.6.3 148.5.2 1.2-1.2 1.2-1.2V26.4l-1.2-1.2-1.2-1.2H151.4l-1.2 1.2z"/><path d="M204.8 96.7c.7.3 1.6.2 1.9-.1.4-.3-.2-.6-1.3-.5l-1.9.1 1.3.5zm14 0c.7.3 1.6.2 1.9-.1.4-.3-.2-.6-1.3-.5l-1.9.1 1.3.5zM329 98c0 1.1.2 2 .4 2s.6-.9.9-2l.5-2h-.9c-.5 0-.9.9-.9 2zm-102 1c.8.5 2 1 2.5 1h1l-1.5-1c-.8-.5-1.9-1-2.5-1h-1l1.5 1zm63.5 36.4v37.9l1.5.4 1.5.5-1.2-.9-1.3-.9-.3-37.5-.2-37.4v37.9zm106-34.3c-.4.6-.5 1.2-.2 1.5.2.3.7-.2 1-1.1.7-1.7.1-2-.8-.4zm18 0c-.4.6-.5 1.2-.2 1.5.2.3.7-.2 1-1.1.7-1.7.1-2-.8-.4zm-84.5.8c0 .6.4 1.3 1 1.6l1 .6-.6-1.5c-.7-1.8-1.4-2.1-1.4-.7zm18-.4c0 .5.5 1.7 1 2.5l1 1.5v-1c0-.6-.5-1.7-1-2.5l-1-1.5v1zm-161 6c-.7.9-1.1 1.7-.9 2 .3.2 1-.5 1.7-1.5 1.4-2.4 1-2.6-.8-.5zm51.1 1.2-1.1 2.8 1.5-1.9c.8-1.1 1.5-2.3 1.5-2.8 0-1.5-.7-.8-1.9 1.9zm172.5 1-.7 1.8 1.2-1.2c.7-.7 1-1.5.7-1.8-.3-.3-.9.2-1.2 1.2zm-18.1.4c-.4.6-.5 1.2-.2 1.5.2.3.7-.2 1-1.1.7-1.7.1-2-.8-.4zM216 111c.8.5 2 1 2.5 1h1l-1.5-1c-.8-.5-1.9-1-2.5-1h-1l1.5 1zm118-.1c0 .6.4 1.3 1 1.6l1 .6-.6-1.5c-.7-1.8-1.4-2.1-1.4-.7zm18-.4c0 .5.5 1.7 1 2.5l1 1.5v-1c0-.6-.5-1.7-1-2.5l-1-1.5v1zm-149.7 2.7c-1.5 2-2.5 3.8-2 3.8.3 0 1.2-1.1 2.1-2.5 1.7-2.6 1.6-3.5-.1-1.3zm19.4-.1c.7.7 1.5 1 1.8.7.3-.3-.2-.9-1.2-1.2l-1.8-.7 1.2 1.2zm186.8 1c-.4.6-.5 1.2-.2 1.5.2.3.7-.2 1-1.1.7-1.7.1-2-.8-.4zm-183.5.4c0 .7 6.1 3.7 6.6 3.3.2-.3-1.2-1.2-3.1-2.1-1.9-.9-3.5-1.5-3.5-1.2zm111 0c0 .5.5 1.7 1 2.5l1 1.5v-1c0-.6-.5-1.7-1-2.5l-1-1.5v1zm52.5 4.6c-.4.6-.5 1.2-.2 1.5.2.3.7-.2 1-1.1.7-1.7.1-2-.8-.4zm-205.4 1.5.1 1.9.5-1.3c.3-.7.2-1.6-.1-1.9-.3-.4-.6.2-.5 1.3zm172.9-1.1c0 .5.5 1.7 1 2.5l1 1.5v-1c0-.6-.5-1.7-1-2.5l-1-1.5v1zm48.6 3.2-.7 1.8 1.2-1.2c.7-.7 1-1.5.7-1.8-.3-.3-.9.2-1.2 1.2zm-203.8 1.8c.6 1.1 2.1 2.9 3.4 4l2.3 2-2.5-3c-1.4-1.7-2.9-3.5-3.4-4l-.8-1 1 2zm139.2-.6c0 .6.4 1.3 1 1.6l1 .6-.6-1.5c-.7-1.8-1.4-2.1-1.4-.7zm44.6 3.6c-.9 2.6-.7 3.2.5 1.2.6-1 .9-2.1.6-2.3-.2-.3-.7.2-1.1 1.1zm17.9-.4c-.4.6-.5 1.2-.2 1.5.2.3.7-.2 1-1.1.7-1.7.1-2-.8-.4zm-218.5.4c0 .5.5 1.7 1 2.5l1 1.5v-1c0-.6-.5-1.7-1-2.5l-1-1.5v1zm158 0c0 .5.5 1.7 1 2.5l1 1.5v-1c0-.6-.5-1.7-1-2.5l-1-1.5v1zm18 1c0 .5.5 1.7 1 2.5l1 1.5v-1c0-.6-.5-1.7-1-2.5l-1-1.5v1zM211 133c.8.5 2 1 2.5 1h1l-1.5-1c-.8-.5-1.9-1-2.5-1h-1l1.5 1zm151.6 1.3c.3 1 .9 1.5 1.2 1.2.3-.3 0-1.1-.7-1.8l-1.2-1.2.7 1.8zm36 1.4-.7 1.8 1.2-1.2c.7-.7 1-1.5.7-1.8-.3-.3-.9.2-1.2 1.2zM191 138.5c1.9 1.9 3.6 3.5 3.9 3.5.3 0-1-1.6-2.9-3.5s-3.6-3.5-3.9-3.5c-.3 0 1 1.6 2.9 3.5zm189.6-2c-.9 2.6-.7 3.2.5 1.2.6-1 .9-2.1.6-2.3-.2-.3-.7.2-1.1 1.1zm-34.6.4c0 .6.4 1.3 1 1.6l1 .6-.6-1.5c-.7-1.8-1.4-2.1-1.4-.7zm18 1c0 .6.4 1.3 1 1.6l1 .6-.6-1.5c-.7-1.8-1.4-2.1-1.4-.7zm-140 .5c0 .2 1.6 1.3 3.6 2.5 1.9 1.2 3.2 1.6 2.9 1.1-.7-1.1-6.5-4.3-6.5-3.6zm172.5 1.7c-.4.6-.5 1.2-.2 1.5.2.3.7-.2 1-1.1.7-1.7.1-2-.8-.4zm-47.9 2.2c.3 1 .9 1.5 1.2 1.2.3-.3 0-1.1-.7-1.8l-1.2-1.2.7 1.8zm18 1c.3 1 .9 1.5 1.2 1.2.3-.3 0-1.1-.7-1.8l-1.2-1.2.7 1.8zM235 146.5c1.3 1.4 2.6 2.5 2.8 2.5.3 0-.5-1.1-1.8-2.5s-2.6-2.5-2.8-2.5c-.3 0 .5 1.1 1.8 2.5zm141.6-1c-.9 2.6-.7 3.2.5 1.2.6-1 .9-2.1.6-2.3-.2-.3-.7.2-1.1 1.1zm-8.6 1.4c0 .6.4 1.3 1 1.6l1 .6-.6-1.5c-.7-1.8-1.4-2.1-1.4-.7zm24.6 1.8-.7 1.8 1.2-1.2c.7-.7 1-1.5.7-1.8-.3-.3-.9.2-1.2 1.2zm-40.6 1.2c0 .6.4 1.3 1 1.6l1 .6-.6-1.5c-.7-1.8-1.4-2.1-1.4-.7zm19.2 2.7c1 1 2 1.6 2.2 1.3.3-.3-.5-1.1-1.7-1.8l-2.2-1.3 1.7 1.8zm19.3.5c-.4.6-.5 1.2-.2 1.5.2.3.7-.2 1-1.1.7-1.7.1-2-.8-.4zm-150.5.4c0 .5.5 1.7 1 2.5l1 1.5v-1c0-.6-.5-1.7-1-2.5l-1-1.5v1zm-21 .9c0 .2.8 1 1.8 1.7l1.7 1.4-1.4-1.8c-1.3-1.6-2.1-2.1-2.1-1.3zm135.6.9c.3 1 .9 1.5 1.2 1.2.3-.3 0-1.1-.7-1.8l-1.2-1.2.7 1.8zm32 6.4-.7 1.8 1.2-1.2c.7-.7 1-1.5.7-1.8-.3-.3-.9.2-1.2 1.2zm-144.4 1.8v3l.5-1.8c.2-.9.2-2.3 0-3-.3-.6-.5.1-.5 1.8zm-18 .5v2.5l.5-1.3c.2-.6.2-1.8 0-2.5l-.5-1.2v2.5zm133.8-1.1c0 .6.4 1.3 1 1.6l1 .6-.6-1.5c-.7-1.8-1.4-2.1-1.4-.7zm26.5 3.2c-.4.6-.5 1.2-.2 1.5.2.3.7-.2 1-1.1.7-1.7.1-2-.8-.4zm-195.8.6-.5.8h5.6l-.5-.8c-.2-.4-1.3-.7-2.3-.7-1 0-2.1.3-2.3.7zm171.9 1.6c.3 1 .9 1.5 1.2 1.2.3-.3 0-1.1-.7-1.8l-1.2-1.2.7 1.8zM198 170.4c0 .2.7.7 1.6 1l1.5.6-.6-1c-.6-1-2.5-1.4-2.5-.6zm5 2.6c.8.5 2 1 2.5 1h1l-1.5-1c-.8-.5-1.9-1-2.5-1h-1l1.5 1zm177.6 1.7-.7 1.8 1.2-1.2c.7-.7 1-1.5.7-1.8-.3-.3-.9.2-1.2 1.2zm22.2-1c.7.3 1.6.2 1.9-.1.4-.3-.2-.6-1.3-.5l-1.9.1 1.3.5zm-192 1c1.2.2 3 .2 4 0l1.7-.5-4 .1h-4l2.3.4zm27.3 1.6-1.3 2.2 1.8-1.7c1-1 1.6-2 1.3-2.2-.3-.3-1.1.5-1.8 1.7zm159.4-.3c-1 1.1-1.6 2.2-1.4 2.4.2.2 1.2-.7 2.2-2 2.2-2.9 1.7-3.2-.8-.4zm9.5-1.6c0 .2.8 1 1.8 1.7l1.7 1.4-1.4-1.8c-1.3-1.6-2.1-2.1-2.1-1.3zm-43 1.5c0 .6.4 1.3 1 1.6l1 .6-.6-1.5c-.7-1.8-1.4-2.1-1.4-.7zm-181 .8c0 .5 1.2 2 2.8 3.4l2.7 2.4-2.5-3c-1.4-1.7-2.6-3.2-2.7-3.4-.2-.2-.3 0-.3.6zm144.2 4.3-.2 5.6-1 1.2-1 1.2 1.6-1.3 1.5-1.4-.4-5.4-.3-5.4-.2 5.5zm68.8 2.7c0 .5 1 1.8 2.3 2.9l2.2 1.9-2-2.5c-1.1-1.4-2.1-2.7-2.2-2.9-.2-.2-.3 0-.3.6zM193 185c.8.5 2 1 2.5 1h1l-1.5-1c-.8-.5-1.9-1-2.5-1h-1l1.5 1zm175-.1c0 .6.4 1.3 1 1.6l1 .6-.6-1.5c-.7-1.8-1.4-2.1-1.4-.7zm39.9 1.8-1.4 1.8 1.8-1.4c1.6-1.3 2.1-2.1 1.3-2.1-.2 0-1 .8-1.7 1.7zM198 187c.8.5 2.2.9 3 .9h1.5l-2-.9c-2.7-1.2-4.3-1.2-2.5 0zm26 0-1.5 1h1.2c.6 0 1.5-.5 1.8-1 .8-1.2.4-1.2-1.5 0zm-17.7 1.7c.9.2 2.3.2 3 0 .6-.3-.1-.5-1.8-.5h-3l1.8.5zm10 0c.9.2 2.3.2 3 0 .6-.3-.1-.5-1.8-.5h-3l1.8.5zm-19 33c.9.2 2.5.2 3.5 0l1.7-.5h-7l1.8.5zm80.5 0c1.2.2 3 .2 4 0l1.7-.5-4 .1h-4l2.3.4zm-89.1 3.5-3.3 3.3 3.1-2.5c1.6-1.4 3.4-2.8 4-3.2.5-.5.6-.8.2-.8-.4 0-2.2 1.5-4 3.2zm15.3-2.8c0 .2.7.7 1.6 1l1.5.6-.6-1c-.6-1-2.5-1.4-2.5-.6zm26.4 14.6v15.5l.3-7.8c.2-4.2.2-11.2 0-15.5l-.3-7.7V237zm5-3v12.5l.3-6.3c.2-3.4.2-9 0-12.5l-.3-6.2V234zm80 3v15.5l.3-7.8c.2-4.2.2-11.2 0-15.5l-.3-7.7V237zm49.1-13.9c-.4.6-.5 1.2-.2 1.5.2.3.7-.2 1-1.1.7-1.7.1-2-.8-.4zm-33.5.3c0 .2.8 1 1.8 1.7l1.7 1.4-1.4-1.8c-1.3-1.6-2.1-2.1-2.1-1.3zm-122.9 2.2.1 1.9.5-1.3c.3-.7.2-1.6-.1-1.9-.3-.4-.6.2-.5 1.3zm159.9-.7c0 .6.4 1.3 1 1.6l1 .6-.6-1.5c-.7-1.8-1.4-2.1-1.4-.7zm-93.6 2.7-1.9 1.5 2-.9c1.1-.5 2.7-1.2 3.5-1.5l1.5-.5-1.6-.1c-.8-.1-2.4.6-3.5 1.5zm5.6-1.2c0 .2.9.6 2 .9l2 .5-.6-.9c-.5-.9-3.4-1.3-3.4-.5zm40 .7v1l1-.6c.6-.3 1-.8 1-1.1 0-.2-.4-.4-1-.4-.5 0-1 .5-1 1.1zm14.2 2.4v3l.5-1.8c.2-.9.2-2.3 0-3-.3-.6-.5.1-.5 1.8zm-143.3.2-1.4 1.8 1.8-1.4c1.6-1.3 2.1-2.1 1.3-2.1-.2 0-1 .8-1.7 1.7zm101.7-.4c.3 1 .9 1.5 1.2 1.2.3-.3 0-1.1-.7-1.8l-1.2-1.2.7 1.8zm35.8 2-.1 3.2 1-2.3 1-2.3-.9-.9-.9-.9-.1 3.2zm42.2-1c.3 1 .9 1.5 1.2 1.2.3-.3 0-1.1-.7-1.8l-1.2-1.2.7 1.8zm-106.1.8c-.4.6-.5 1.2-.2 1.5.2.3.7-.2 1-1.1.7-1.7.1-2-.8-.4zm96.1.6-.7 1.8 1.2-1.2c.7-.7 1-1.5.7-1.8-.3-.3-.9.2-1.2 1.2zm-66.5 1.9.1 1.9.5-1.3c.3-.7.2-1.6-.1-1.9-.3-.4-.6.2-.5 1.3zM183.3 237v4.5l.4-2.3c.2-1.2.2-3.2 0-4.5l-.4-2.2v4.5zm148.9-2.8c-1.7 1.7-1.5 2.6 1.3 6 1.4 1.6 2.5 2.6 2.5 2.2 0-.4-1-1.8-2.2-3.1l-2.2-2.4 1.2-1.9c1.4-2.3 1.2-2.6-.6-.8zm32.4-.3-.6.9 2-.5c2.3-.6 2.6-1.3.6-1.3-.8 0-1.7.4-2 .9zm-39.8.8c.7.3 1.6.2 1.9-.1.4-.3-.2-.6-1.3-.5l-1.9.1 1.3.5zM188.2 237v2.5l.5-1.3c.2-.6.2-1.8 0-2.5l-.5-1.2v2.5zm170.3-.9c-.4.6-.5 1.2-.2 1.5.2.3.7-.2 1-1.1.7-1.7.1-2-.8-.4zm9.5-.2c0 .6.4 1.3 1 1.6l1 .6-.6-1.5c-.7-1.8-1.4-2.1-1.4-.7zm-167.3 1.8-.5.8h9.6l-.5-.8c-.2-.4-2.2-.7-4.3-.7-2.1 0-4.1.3-4.3.7zm173.3.2c0 .6.4 1.3 1 1.6l1 .6-.6-1.5c-.7-1.8-1.4-2.1-1.4-.7zm-47.9 1.4c.2.1 1.3.9 2.4 1.7l2 1.5-1.4-1.8c-.7-.9-1.8-1.7-2.4-1.7-.6 0-.8.1-.6.3zm-62.1 2.6c0 .6.4 1.3 1 1.6l1 .6-.6-1.5c-.7-1.8-1.4-2.1-1.4-.7zm112.6 1.4c.3 1 .9 1.5 1.2 1.2.3-.3 0-1.1-.7-1.8l-1.2-1.2.7 1.8zm-172.9 1.6-.6 2.4 1.1-1.1c.5-.5.8-1.6.6-2.3l-.4-1.3-.7 2.3zm88.9-.2-.7 1.8 1.2-1.2c.7-.7 1-1.5.7-1.8-.3-.3-.9.2-1.2 1.2zm62 0-.7 1.8 1.2-1.2c.7-.7 1-1.5.7-1.8-.3-.3-.9.2-1.2 1.2zM187 247.5c1.3 1.4 2.6 2.5 2.8 2.5.3 0-.5-1.1-1.8-2.5s-2.6-2.5-2.8-2.5c-.3 0 .5 1.1 1.8 2.5zm87.4-1.1 2 1.6 3-.1 3.1-.1-3.5-.7c-2-.4-4.2-1.1-5-1.5-.8-.4-.6 0 .4.8zm53.2.1-2 1.5h1.1c.6 0 1.6-.7 2.3-1.5 1.6-1.9 1.1-1.9-1.4 0zm7 .2-.7 1.8 1.2-1.2c.7-.7 1-1.5.7-1.8-.3-.3-.9.2-1.2 1.2zM195 247c.8.5 2.8 1 4.4 1 3.9 0 3-.6-1.9-1.3l-4-.6 1.5.9zm125 0c0 .5.5 1 1.1 1h1l-.6-1c-.3-.6-.8-1-1.1-1-.2 0-.4.4-.4 1zm38.9.7-1.4 1.8 1.7-1.3 1.7-1.4 6.5.4 6.4.3-.5-.8c-.2-.4-3.3-.7-6.7-.7h-6.4l-1.3 1.7zm45.8-.6c.7.7 1.5 1 1.8.7.3-.3-.2-.9-1.2-1.2l-1.8-.7 1.2 1.2zm-52.4 2.4c-.3.9-.3 1.8-.1 2.1.3.3.8-.4 1.1-1.6.6-2.3-.1-2.7-1-.5zm-160.6 1.6c.7.7 1.5 1 1.8.7.3-.3-.2-.9-1.2-1.2l-1.8-.7 1.2 1.2zm14.3-.1-1.5 1h1.2c.6 0 1.5-.5 1.8-1 .8-1.2.4-1.2-1.5 0zm-8.7 1.7c.9.2 2.5.2 3.5 0l1.7-.5h-7l1.8.5zm81 0c.9.2 2.3.2 3 0 .6-.3-.1-.5-1.8-.5h-3l1.8.5z"/></g><g fill="#FFF" stroke="#FFF" stroke-width="2.3"><path d="M142.5 19.2c-.3.7-.4 71.3-.3 156.8l.3 155.5h313v-313l-156.3-.3-156.3-.2-.4 1.2zm306.3 6 1.2 1.2v296.2l-1.2 1.2-1.2 1.2H151.4l-1.2-1.2-1.2-1.2V26.4l1.2-1.2 1.2-1.2h296.2l1.2 1.2z"/><path d="M202.6 97.5c-2.8.8-6.8 2.7-9 4.2l-4 2.8-2.8 5.4-2.8 5.3V126l2.1 4.5 2.1 4.4 4.4 4 4.3 4.1 11.5 5.5 11.4 5.4 2 2.9c1.2 1.5 2.4 4 2.7 5.4l.6 2.5-1.4 3.5-1.5 3.5-3.7 1.7-3.8 1.8-5.1-.7-5.1-.6-6.6-3.6-6.7-3.6-1.4.5c-.8.3-2.5 2.7-3.9 5.3l-2.4 4.7 3.7 3.2 3.6 3.2 6.8 2.3 6.7 2.4h8.6l8.6-.1 3.5-1.5c1.9-.9 5.4-2.9 7.6-4.5l4.1-3 2.7-5.3 2.6-5.3v-10.4l-1.5-3.5c-3.3-7.9-12-14.7-25.9-20.3l-6.8-2.7-3.9-3.7-3.9-3.7v-3.7c0-4.8 1.3-7.2 5-9.1l2.9-1.5h8.2l7.7 3.5 7.6 3.6 1.2-.5c.7-.3 2.4-2.5 3.9-5.1l2.7-4.5-.5-1.4c-.7-1.8-10.1-6.3-16.8-8.1-6.6-1.8-12.8-1.8-19.3 0zm72.1-.9-.7.7v89.3l1.2 1.2 1.2 1.2h48.4l1.1-1.4 1.2-1.4-.3-5.9-.3-5.8-18-.5-18-.5-.5-38.5-.5-38.5-7-.3c-3.9-.1-7.4 0-7.8.4zm56 .1c-.4.3-.7 1.3-.7 2 0 .8 3.6 9.1 7.9 18.6 4.3 9.5 9.3 20.2 11 23.9 3.3 7.2 6.6 14.4 12.3 26.8 1.9 4.1 4.7 10.3 6.2 13.7 1.6 3.4 3.4 6.4 4 6.6 2.7 1.1 2.7 1 13.9-23.3 1.3-3 3.9-8.5 5.6-12.3 1.7-3.7 4.5-9.6 6.1-13.2 1.7-3.6 4.3-9.3 5.9-12.8 6.1-13.1 10.3-22.3 11.8-25.4l1.5-3.2-.7-1-.6-1.1h-14.7l-.9 1.2c-.5.7-6.5 13.8-13.3 29.1l-12.3 27.8-1.1-.4c-1.6-.5-3.4-4.3-18.6-38.7-4-9.1-7.7-17.1-8.3-17.8l-.9-1.2H338c-3.6 0-7 .3-7.3.7zm67.4 79.9c-1.2 1.5-2.1 3.4-2.1 4.4 0 1 .9 2.9 2.1 4.4l2 2.6h6.6l1.8-2 1.8-2v-6l-1.8-2-1.8-2h-6.6l-2 2.6zm-209.6 49.7-4.5 4.4v12.1l2.6 3.2c1.5 1.7 3.9 3.7 5.5 4.5l2.8 1.5h9.2l3-1.6 3-1.5-.3-5.2-.3-5.2h-8.8l-.4 1.2-.5 1.3 2.7 1 2.6 1-.3 1.7-.3 1.8-2.6.9-2.6.9-2.6-.7c-1.5-.3-3.7-1.7-5.1-3.1l-2.4-2.4-.7-3-.6-2.9 1.5-3.5 1.4-3.6 3.3-1.6 3.2-1.7 2.6.5c1.4.3 3.8.9 5.4 1.3l2.7.6v-3.9l-2.5-1.1-2.6-1.2H193l-4.5 4.3zM231 237v15.1l8.3-.3 8.2-.3v-3l-5.5-.3-5.5-.3-.7-1.2c-.4-.7-.8-6.5-.8-13V222h-4v15zm40.3-13-3.2 1.9-2.1 4-2 4v6.2l2 4 2.1 4 3.2 1.9 3.2 2h9.8l3.5-2.2 3.5-2.1 1.9-4.5 2-4.4-.7-3.6c-1-5.4-3.1-8.8-6.8-11.1l-3.4-2.1h-9.8l-3.2 2zm15.1 5.4 3.6 3.3v7.9l-1.6 2.2c-1.9 2.7-6.5 5.2-9.7 5.2h-2.4l-2.8-2.2c-1.5-1.2-3.4-3.6-4.1-5.5L268 237l1.4-3.3c.7-1.9 2.6-4.3 4.1-5.5l2.8-2.2h6.6l3.5 3.4zM316 237v15h13.5l2.1-1.8c1.2-.9 2.7-2.7 3.4-4l1.1-2.3-1.8-2.6c-1-1.4-2.2-3.2-2.8-3.9l-.9-1.3 1.7-1.9 1.7-1.9v-6.2l-2.6-2-2.7-2.1H316v15zm12.4-9.1 1.8 2-.7 2-.6 2.1-2.4.6c-1.3.3-3.2.4-4.2.2l-1.8-.3-.3-4.3-.3-4.2h6.8l1.7 1.9zm.4 12.3c.7.7 1.2 2.1 1.2 3.3 0 1.2-.5 2.6-1.2 3.3l-1.2 1.2H320v-9h7.6l1.2 1.2zm32.8-9c-9.6 20.7-9.7 20.8-7.2 20.8h1.5l2.1-3 2.1-3H373l1.2 2.4c.6 1.4 1.8 2.8 2.6 3.1l1.5.6.9-.9.9-.9-4.4-9.4c-2.4-5.2-5.4-11.5-6.6-14.2-1.2-2.6-2.4-4.7-2.7-4.7-.3 0-2.4 4.2-4.8 9.2zm7.8 6 1.7 4.1-1 .7c-1.4.8-8.1 0-8.1-1 0-.4.7-2.4 1.5-4.4l1.5-3.6h2.8l1.6 4.2zm30.1-14c-.3.8-.4 7.5-.3 14.9l.3 13.4h16v-3l-5.5-.5-5.5-.5-.5-12.5-.5-12.5-1.8-.3-1.7-.3-.5 1.3z"/></g></svg>